{"title":"Final Destination 5 cam rip","uid":6607000,"size":725630815,"categoryP":"video","categoryS":"movies","magnet":"?xt=urn:btih:0542342094268cdf88825fd1753c5929bf1aa4bf&amp;dn=Final+Destination+5+cam+rip&amp;tr=udp%3A%2F%2Ftracker.openbittorrent.com%3A80&amp;tr=udp%3A%2F%2Fopen.demonii.com%3A1337&amp;tr=udp%3A%2F%2Ftracker.coppersurfer.tk%3A6969&amp;tr=udp%3A%2F%2Fexodus.desync.com%3A6969","seeders":0,"leechers":1,"uploader":"THEHAWK10","files":4,"time":1313438945,"description":"cam rip\nFormat : AVI\nFormat/Info : Audio Video Interleave\nFile size : 688 MiB\nDuration : 1h 27mn\nOverall bit rate : 1 105 Kbps\nWriting application : Lavf52.47.0\nWriting library : VirtualDub build 32842/release\n\nVideo\nID : 0\nFormat : MPEG-4 Visual\nFormat profile : Advanced Simple@L5\nFormat settings, BVOP : 2\nFormat settings, QPel : No\nFormat settings, GMC : No warppoints\nFormat settings, Matrix : Default (H.263)\nMuxing mode : Packed bitstream\nCodec ID : XVID\nCodec ID/Hint : XviD\nDuration : 1h 27mn\nBit rate : 965 Kbps\nWidth : 642 pixels\nHeight : 368 pixels\nDisplay aspect ratio : 16:9\nFrame rate : 25.000 fps\nColor space : YUV\nChroma subsampling : 4:2:0\nBit depth : 8 bits\nScan type : Progressive\nCompression mode : Lossy\nBits/(Pixel*Frame) : 0.163\nStream size : 601 MiB (87%)\nWriting library : XviD 64\n\nAudio\nID : 1\nFormat : MPEG Audio\nFormat version : Version 1\nFormat profile : Layer 3\nMode : Joint stereo\nMode extension : MS Stereo\nCodec ID : 55\nCodec ID/Hint : MP3\nDuration : 1h 27mn\nBit rate mode : Constant\nBit rate : 128 Kbps\nChannel(s) : 2 channels\nSampling rate : 44.1 KHz\nCompression mode : Lossy\nStream size : 79.7 MiB (12%)\nAlignment : Aligned on interleaves\nInterleave, duration : 26 ms (0.65 video frame)\nInterleave, preload duration : 522 ms\n\nhope you enjoy","torrent":{"xt":"urn:btih:0542342094268cdf88825fd1753c5929bf1aa4bf","amp;dn":"Final+Destination+5+cam+rip","amp;tr":["udp%3A%2F%2Ftracker.openbittorrent.com%3A80","udp%3A%2F%2Fopen.demonii.com%3A1337","udp%3A%2F%2Ftracker.coppersurfer.tk%3A6969","udp%3A%2F%2Fexodus.desync.com%3A6969"],"infoHash":"0542342094268cdf88825fd1753c5929bf1aa4bf","infoHashBuffer":{"type":"Buffer","data":[5,66,52,32,148,38,140,223,136,130,95,209,117,60,89,41,191,26,164,191]},"announce":[],"urlList":[]}}